<svg xmlns="http://www.w3.org/2000/svg" xmlns:xlink="http://www.w3.org/1999/xlink" width="500" zoomAndPan="magnify" viewBox="0 0 375 374.999991" height="500" preserveAspectRatio="xMidYMid meet" version="1.0"><defs><clipPath id="c8bf167fc8"><path d="M 0 7.734375 L 375 7.734375 L 375 366.984375 L 0 366.984375 Z M 0 7.734375 " clip-rule="nonzero"/></clipPath><clipPath id="37ddd77af5"><path d="M 0 7.734375 L 375 7.734375 L 375 366.984375 L 0 366.984375 Z M 0 7.734375 " clip-rule="nonzero"/></clipPath></defs><g clip-path="url(#c8bf167fc8)"><path fill="#ffbd59" d="M 356.238281 169.078125 C 348.257812 169.078125 341.433594 174.089844 338.730469 181.128906 L 274.449219 181.128906 L 274.449219 146.3125 L 306.589844 146.3125 C 309.292969 153.351562 316.121094 158.363281 324.097656 158.363281 C 334.4375 158.363281 342.847656 149.953125 342.847656 139.613281 C 342.847656 129.277344 334.4375 120.867188 324.097656 120.867188 C 316.117188 120.867188 309.292969 125.878906 306.589844 132.917969 L 274.445312 132.917969 C 274.21875 111.007812 256.335938 93.25 234.371094 93.242188 L 234.371094 80.789062 C 241.410156 78.085938 246.425781 71.257812 246.425781 63.28125 C 246.425781 52.941406 238.015625 44.53125 227.675781 44.53125 C 217.335938 44.53125 208.925781 52.941406 208.925781 63.28125 C 208.925781 71.257812 213.941406 78.085938 220.980469 80.789062 L 220.980469 93.242188 L 186.160156 93.242188 L 186.160156 43.992188 C 193.199219 41.289062 198.214844 34.460938 198.214844 26.484375 C 198.214844 16.144531 189.804688 7.734375 179.464844 7.734375 C 169.125 7.734375 160.714844 16.144531 160.714844 26.484375 C 160.714844 34.460938 165.730469 41.289062 172.769531 43.992188 L 172.769531 93.242188 L 137.949219 93.242188 L 137.949219 72.753906 C 144.988281 70.050781 150.003906 63.222656 150.003906 55.246094 C 150.003906 44.90625 141.59375 36.496094 131.253906 36.496094 C 120.914062 36.496094 112.503906 44.90625 112.503906 55.246094 C 112.503906 63.222656 117.519531 70.050781 124.558594 72.753906 L 124.558594 93.242188 L 121.828125 93.242188 C 99.863281 93.242188 81.964844 111.003906 81.738281 132.917969 L 68.410156 132.917969 C 65.707031 125.878906 58.878906 120.867188 50.902344 120.867188 C 40.5625 120.867188 32.152344 129.277344 32.152344 139.613281 C 32.152344 149.953125 40.5625 158.363281 50.902344 158.363281 C 58.878906 158.363281 65.707031 153.351562 68.410156 146.3125 L 81.734375 146.3125 L 81.734375 181.128906 L 36.269531 181.128906 C 33.566406 174.089844 26.738281 169.078125 18.761719 169.078125 C 8.421875 169.078125 0.0117188 177.488281 0.0117188 187.824219 C 0.0117188 198.164062 8.421875 206.574219 18.761719 206.574219 C 26.738281 206.574219 33.566406 201.5625 36.269531 194.523438 L 81.734375 194.523438 L 81.734375 229.339844 L 52.339844 229.339844 C 49.636719 222.300781 42.808594 217.289062 34.832031 217.289062 C 24.492188 217.289062 16.082031 225.699219 16.082031 236.039062 C 16.082031 246.375 24.492188 254.785156 34.832031 254.785156 C 42.808594 254.785156 49.636719 249.773438 52.339844 242.734375 L 81.925781 242.734375 C 83.894531 263.019531 101.042969 278.921875 121.828125 278.921875 L 124.558594 278.921875 L 124.558594 306.914062 C 117.519531 309.613281 112.503906 316.441406 112.503906 324.421875 C 112.503906 334.757812 120.914062 343.167969 131.253906 343.167969 C 141.59375 343.167969 150.003906 334.757812 150.003906 324.421875 C 150.003906 316.4375 144.988281 309.613281 137.949219 306.914062 L 137.949219 278.921875 L 172.769531 278.921875 L 172.769531 331.019531 C 165.730469 333.71875 160.714844 340.546875 160.714844 348.527344 C 160.714844 358.863281 169.125 367.273438 179.464844 367.273438 C 189.804688 367.273438 198.214844 358.863281 198.214844 348.527344 C 198.214844 340.542969 193.199219 333.71875 186.160156 331.019531 L 186.160156 278.921875 L 220.980469 278.921875 L 220.980469 314.949219 C 213.941406 317.648438 208.925781 324.476562 208.925781 332.457031 C 208.925781 342.792969 217.335938 351.203125 227.675781 351.203125 C 238.015625 351.203125 246.425781 342.792969 246.425781 332.457031 C 246.425781 324.472656 241.410156 317.648438 234.371094 314.949219 L 234.371094 278.917969 C 255.15625 278.910156 272.292969 263.003906 274.261719 242.730469 L 298.554688 242.730469 C 301.257812 249.769531 308.085938 254.78125 316.0625 254.78125 C 326.402344 254.78125 334.8125 246.371094 334.8125 236.03125 C 334.8125 225.695312 326.402344 217.285156 316.0625 217.285156 C 308.082031 217.285156 301.257812 222.296875 298.554688 229.335938 L 274.449219 229.335938 L 274.449219 194.515625 L 338.730469 194.515625 C 341.433594 201.558594 348.261719 206.570312 356.238281 206.570312 C 366.578125 206.570312 374.988281 198.160156 374.988281 187.820312 C 374.988281 177.484375 366.578125 169.074219 356.238281 169.074219 Z M 324.097656 134.257812 C 327.054688 134.257812 329.457031 136.660156 329.457031 139.613281 C 329.457031 142.570312 327.054688 144.972656 324.097656 144.972656 C 321.144531 144.972656 318.742188 142.570312 318.742188 139.613281 C 318.742188 136.660156 321.144531 134.257812 324.097656 134.257812 Z M 179.464844 21.125 C 182.421875 21.125 184.820312 23.527344 184.820312 26.484375 C 184.820312 29.4375 182.421875 31.839844 179.464844 31.839844 C 176.507812 31.839844 174.109375 29.4375 174.109375 26.484375 C 174.109375 23.527344 176.507812 21.125 179.464844 21.125 Z M 131.253906 49.886719 C 134.207031 49.886719 136.609375 52.289062 136.609375 55.246094 C 136.609375 58.199219 134.207031 60.601562 131.253906 60.601562 C 128.296875 60.601562 125.898438 58.199219 125.898438 55.246094 C 125.898438 52.289062 128.296875 49.886719 131.253906 49.886719 Z M 50.902344 144.972656 C 47.945312 144.972656 45.542969 142.570312 45.542969 139.613281 C 45.542969 136.660156 47.945312 134.257812 50.902344 134.257812 C 53.855469 134.257812 56.257812 136.660156 56.257812 139.613281 C 56.257812 142.570312 53.855469 144.972656 50.902344 144.972656 Z M 18.761719 193.183594 C 15.804688 193.183594 13.402344 190.78125 13.402344 187.824219 C 13.402344 184.871094 15.804688 182.46875 18.761719 182.46875 C 21.714844 182.46875 24.117188 184.871094 24.117188 187.824219 C 24.117188 190.78125 21.714844 193.183594 18.761719 193.183594 Z M 34.832031 241.394531 C 31.875 241.394531 29.472656 238.992188 29.472656 236.039062 C 29.472656 233.082031 31.875 230.679688 34.832031 230.679688 C 37.785156 230.679688 40.1875 233.082031 40.1875 236.039062 C 40.1875 238.992188 37.785156 241.394531 34.832031 241.394531 Z M 131.253906 329.78125 C 128.296875 329.78125 125.898438 327.378906 125.898438 324.425781 C 125.898438 321.46875 128.296875 319.066406 131.253906 319.066406 C 134.207031 319.066406 136.609375 321.46875 136.609375 324.425781 C 136.609375 327.378906 134.207031 329.78125 131.253906 329.78125 Z M 179.464844 353.886719 C 176.507812 353.886719 174.109375 351.484375 174.109375 348.53125 C 174.109375 345.574219 176.507812 343.171875 179.464844 343.171875 C 182.421875 343.171875 184.820312 345.574219 184.820312 348.53125 C 184.820312 351.484375 182.421875 353.886719 179.464844 353.886719 Z M 227.675781 57.921875 C 230.632812 57.921875 233.03125 60.324219 233.03125 63.28125 C 233.03125 66.234375 230.632812 68.636719 227.675781 68.636719 C 224.722656 68.636719 222.320312 66.234375 222.320312 63.28125 C 222.320312 60.324219 224.722656 57.921875 227.675781 57.921875 Z M 227.675781 337.816406 C 224.722656 337.816406 222.320312 335.414062 222.320312 332.460938 C 222.320312 329.503906 224.722656 327.101562 227.675781 327.101562 C 230.632812 327.101562 233.03125 329.503906 233.03125 332.460938 C 233.03125 335.414062 230.632812 337.816406 227.675781 337.816406 Z M 316.0625 230.679688 C 319.019531 230.679688 321.421875 233.082031 321.421875 236.039062 C 321.421875 238.992188 319.019531 241.394531 316.0625 241.394531 C 313.109375 241.394531 310.707031 238.992188 310.707031 236.039062 C 310.707031 233.082031 313.109375 230.679688 316.0625 230.679688 Z M 356.238281 193.183594 C 353.285156 193.183594 350.882812 190.78125 350.882812 187.824219 C 350.882812 184.871094 353.285156 182.46875 356.238281 182.46875 C 359.195312 182.46875 361.597656 184.871094 361.597656 187.824219 C 361.597656 190.78125 359.195312 193.183594 356.238281 193.183594 Z M 356.238281 193.183594 " fill-opacity="1" fill-rule="nonzero"/></g><path fill="#ededed" d="M 188.457031 144.613281 L 157.710938 227.550781 L 177.867188 227.550781 C 177.867188 227.550781 182.945312 213.847656 182.945312 213.847656 L 214.460938 213.847656 C 214.460938 213.847656 219.636719 227.550781 219.636719 227.550781 L 239.828125 227.550781 C 239.828125 227.550781 209.050781 144.613281 209.050781 144.613281 Z M 189.09375 197.148438 L 198.828125 171.410156 L 208.289062 197.148438 Z M 189.09375 197.148438 " fill-opacity="1" fill-rule="nonzero"/><path fill="#ededed" d="M 125.878906 144.613281 L 145.65625 144.613281 L 145.65625 227.550781 L 125.878906 227.550781 Z M 125.878906 144.613281 " fill-opacity="1" fill-rule="nonzero"/><g clip-path="url(#37ddd77af5)"><path fill="#ffbd59" d="M 356.238281 169.078125 C 348.257812 169.078125 341.433594 174.089844 338.730469 181.128906 L 274.449219 181.128906 L 274.449219 146.3125 L 306.589844 146.3125 C 309.292969 153.351562 316.121094 158.363281 324.097656 158.363281 C 334.4375 158.363281 342.847656 149.953125 342.847656 139.613281 C 342.847656 129.277344 334.4375 120.867188 324.097656 120.867188 C 316.117188 120.867188 309.292969 125.878906 306.589844 132.917969 L 274.445312 132.917969 C 274.21875 111.007812 256.335938 93.25 234.371094 93.242188 L 234.371094 80.789062 C 241.410156 78.085938 246.425781 71.257812 246.425781 63.28125 C 246.425781 52.941406 238.015625 44.53125 227.675781 44.53125 C 217.335938 44.53125 208.925781 52.941406 208.925781 63.28125 C 208.925781 71.257812 213.941406 78.085938 220.980469 80.789062 L 220.980469 93.242188 L 186.160156 93.242188 L 186.160156 43.992188 C 193.199219 41.289062 198.214844 34.460938 198.214844 26.484375 C 198.214844 16.144531 189.804688 7.734375 179.464844 7.734375 C 169.125 7.734375 160.714844 16.144531 160.714844 26.484375 C 160.714844 34.460938 165.730469 41.289062 172.769531 43.992188 L 172.769531 93.242188 L 137.949219 93.242188 L 137.949219 72.753906 C 144.988281 70.050781 150.003906 63.222656 150.003906 55.246094 C 150.003906 44.90625 141.59375 36.496094 131.253906 36.496094 C 120.914062 36.496094 112.503906 44.90625 112.503906 55.246094 C 112.503906 63.222656 117.519531 70.050781 124.558594 72.753906 L 124.558594 93.242188 L 121.828125 93.242188 C 99.863281 93.242188 81.964844 111.003906 81.738281 132.917969 L 68.410156 132.917969 C 65.707031 125.878906 58.878906 120.867188 50.902344 120.867188 C 40.5625 120.867188 32.152344 129.277344 32.152344 139.613281 C 32.152344 149.953125 40.5625 158.363281 50.902344 158.363281 C 58.878906 158.363281 65.707031 153.351562 68.410156 146.3125 L 81.734375 146.3125 L 81.734375 181.128906 L 36.269531 181.128906 C 33.566406 174.089844 26.738281 169.078125 18.761719 169.078125 C 8.421875 169.078125 0.0117188 177.488281 0.0117188 187.824219 C 0.0117188 198.164062 8.421875 206.574219 18.761719 206.574219 C 26.738281 206.574219 33.566406 201.5625 36.269531 194.523438 L 81.734375 194.523438 L 81.734375 229.339844 L 52.339844 229.339844 C 49.636719 222.300781 42.808594 217.289062 34.832031 217.289062 C 24.492188 217.289062 16.082031 225.699219 16.082031 236.039062 C 16.082031 246.375 24.492188 254.785156 34.832031 254.785156 C 42.808594 254.785156 49.636719 249.773438 52.339844 242.734375 L 81.925781 242.734375 C 83.894531 263.019531 101.042969 278.921875 121.828125 278.921875 L 124.558594 278.921875 L 124.558594 306.914062 C 117.519531 309.613281 112.503906 316.441406 112.503906 324.421875 C 112.503906 334.757812 120.914062 343.167969 131.253906 343.167969 C 141.59375 343.167969 150.003906 334.757812 150.003906 324.421875 C 150.003906 316.4375 144.988281 309.613281 137.949219 306.914062 L 137.949219 278.921875 L 172.769531 278.921875 L 172.769531 331.019531 C 165.730469 333.71875 160.714844 340.546875 160.714844 348.527344 C 160.714844 358.863281 169.125 367.273438 179.464844 367.273438 C 189.804688 367.273438 198.214844 358.863281 198.214844 348.527344 C 198.214844 340.542969 193.199219 333.71875 186.160156 331.019531 L 186.160156 278.921875 L 220.980469 278.921875 L 220.980469 314.949219 C 213.941406 317.648438 208.925781 324.476562 208.925781 332.457031 C 208.925781 342.792969 217.335938 351.203125 227.675781 351.203125 C 238.015625 351.203125 246.425781 342.792969 246.425781 332.457031 C 246.425781 324.472656 241.410156 317.648438 234.371094 314.949219 L 234.371094 278.917969 C 255.15625 278.910156 272.292969 263.003906 274.261719 242.730469 L 298.554688 242.730469 C 301.257812 249.769531 308.085938 254.78125 316.0625 254.78125 C 326.402344 254.78125 334.8125 246.371094 334.8125 236.03125 C 334.8125 225.695312 326.402344 217.285156 316.0625 217.285156 C 308.082031 217.285156 301.257812 222.296875 298.554688 229.335938 L 274.449219 229.335938 L 274.449219 194.515625 L 338.730469 194.515625 C 341.433594 201.558594 348.261719 206.570312 356.238281 206.570312 C 366.578125 206.570312 374.988281 198.160156 374.988281 187.820312 C 374.988281 177.484375 366.578125 169.074219 356.238281 169.074219 Z M 324.097656 134.257812 C 327.054688 134.257812 329.457031 136.660156 329.457031 139.613281 C 329.457031 142.570312 327.054688 144.972656 324.097656 144.972656 C 321.144531 144.972656 318.742188 142.570312 318.742188 139.613281 C 318.742188 136.660156 321.144531 134.257812 324.097656 134.257812 Z M 179.464844 21.125 C 182.421875 21.125 184.820312 23.527344 184.820312 26.484375 C 184.820312 29.4375 182.421875 31.839844 179.464844 31.839844 C 176.507812 31.839844 174.109375 29.4375 174.109375 26.484375 C 174.109375 23.527344 176.507812 21.125 179.464844 21.125 Z M 131.253906 49.886719 C 134.207031 49.886719 136.609375 52.289062 136.609375 55.246094 C 136.609375 58.199219 134.207031 60.601562 131.253906 60.601562 C 128.296875 60.601562 125.898438 58.199219 125.898438 55.246094 C 125.898438 52.289062 128.296875 49.886719 131.253906 49.886719 Z M 50.902344 144.972656 C 47.945312 144.972656 45.542969 142.570312 45.542969 139.613281 C 45.542969 136.660156 47.945312 134.257812 50.902344 134.257812 C 53.855469 134.257812 56.257812 136.660156 56.257812 139.613281 C 56.257812 142.570312 53.855469 144.972656 50.902344 144.972656 Z M 18.761719 193.183594 C 15.804688 193.183594 13.402344 190.78125 13.402344 187.824219 C 13.402344 184.871094 15.804688 182.46875 18.761719 182.46875 C 21.714844 182.46875 24.117188 184.871094 24.117188 187.824219 C 24.117188 190.78125 21.714844 193.183594 18.761719 193.183594 Z M 34.832031 241.394531 C 31.875 241.394531 29.472656 238.992188 29.472656 236.039062 C 29.472656 233.082031 31.875 230.679688 34.832031 230.679688 C 37.785156 230.679688 40.1875 233.082031 40.1875 236.039062 C 40.1875 238.992188 37.785156 241.394531 34.832031 241.394531 Z M 131.253906 329.78125 C 128.296875 329.78125 125.898438 327.378906 125.898438 324.425781 C 125.898438 321.46875 128.296875 319.066406 131.253906 319.066406 C 134.207031 319.066406 136.609375 321.46875 136.609375 324.425781 C 136.609375 327.378906 134.207031 329.78125 131.253906 329.78125 Z M 179.464844 353.886719 C 176.507812 353.886719 174.109375 351.484375 174.109375 348.53125 C 174.109375 345.574219 176.507812 343.171875 179.464844 343.171875 C 182.421875 343.171875 184.820312 345.574219 184.820312 348.53125 C 184.820312 351.484375 182.421875 353.886719 179.464844 353.886719 Z M 227.675781 57.921875 C 230.632812 57.921875 233.03125 60.324219 233.03125 63.28125 C 233.03125 66.234375 230.632812 68.636719 227.675781 68.636719 C 224.722656 68.636719 222.320312 66.234375 222.320312 63.28125 C 222.320312 60.324219 224.722656 57.921875 227.675781 57.921875 Z M 227.675781 337.816406 C 224.722656 337.816406 222.320312 335.414062 222.320312 332.460938 C 222.320312 329.503906 224.722656 327.101562 227.675781 327.101562 C 230.632812 327.101562 233.03125 329.503906 233.03125 332.460938 C 233.03125 335.414062 230.632812 337.816406 227.675781 337.816406 Z M 316.0625 230.679688 C 319.019531 230.679688 321.421875 233.082031 321.421875 236.039062 C 321.421875 238.992188 319.019531 241.394531 316.0625 241.394531 C 313.109375 241.394531 310.707031 238.992188 310.707031 236.039062 C 310.707031 233.082031 313.109375 230.679688 316.0625 230.679688 Z M 356.238281 193.183594 C 353.285156 193.183594 350.882812 190.78125 350.882812 187.824219 C 350.882812 184.871094 353.285156 182.46875 356.238281 182.46875 C 359.195312 182.46875 361.597656 184.871094 361.597656 187.824219 C 361.597656 190.78125 359.195312 193.183594 356.238281 193.183594 Z M 356.238281 193.183594 " fill-opacity="1" fill-rule="nonzero"/></g><path fill="#f4f6fc" d="M 188.457031 144.613281 L 157.710938 227.550781 L 177.867188 227.550781 C 177.867188 227.550781 182.945312 213.847656 182.945312 213.847656 L 214.460938 213.847656 C 214.460938 213.847656 219.636719 227.550781 219.636719 227.550781 L 239.828125 227.550781 C 239.828125 227.550781 209.050781 144.613281 209.050781 144.613281 Z M 189.09375 197.148438 L 198.828125 171.410156 L 208.289062 197.148438 Z M 189.09375 197.148438 " fill-opacity="1" fill-rule="nonzero"/><path fill="#f4f6fc" d="M 125.878906 144.613281 L 145.65625 144.613281 L 145.65625 227.550781 L 125.878906 227.550781 Z M 125.878906 144.613281 " fill-opacity="1" fill-rule="nonzero"/></svg>