<svg xmlns="http://www.w3.org/2000/svg" xmlns:xlink="http://www.w3.org/1999/xlink" width="500" zoomAndPan="magnify" viewBox="0 0 375 374.999991" height="500" preserveAspectRatio="xMidYMid meet" version="1.0"><path fill="#ffbd59" d="M 355.261719 0 L 276.316406 0 C 265.429688 0 256.578125 8.851562 256.578125 19.738281 L 256.578125 39.472656 L 226.972656 39.472656 C 221.523438 39.472656 217.105469 43.890625 217.105469 49.34375 L 217.105469 108.550781 C 217.105469 114.003906 221.523438 118.421875 226.972656 118.421875 C 232.421875 118.421875 236.84375 114.003906 236.84375 108.550781 L 236.84375 59.210938 L 256.578125 59.210938 L 256.578125 88.816406 C 256.578125 99.699219 265.429688 108.550781 276.316406 108.550781 L 355.261719 108.550781 C 366.148438 108.550781 375 99.699219 375 88.816406 L 375 19.738281 C 375 8.851562 366.148438 0 355.261719 0 Z M 276.316406 88.816406 L 276.316406 19.738281 L 355.261719 19.738281 L 355.277344 88.816406 Z M 276.316406 88.816406 " fill-opacity="1" fill-rule="nonzero"/><path fill="#ffbd59" d="M 323.613281 37.429688 L 310.855469 50.191406 L 307.964844 47.300781 C 304.109375 43.445312 297.863281 43.445312 294.007812 47.300781 C 290.15625 51.152344 290.15625 57.398438 294.007812 61.253906 L 303.878906 71.121094 C 305.804688 73.050781 308.332031 74.011719 310.855469 74.011719 C 313.378906 74.011719 315.90625 73.050781 317.832031 71.121094 L 337.570312 51.386719 C 341.425781 47.53125 341.425781 41.285156 337.570312 37.429688 C 333.714844 33.574219 327.46875 33.574219 323.613281 37.429688 Z M 323.613281 37.429688 " fill-opacity="1" fill-rule="nonzero"/><path fill="#ffbd59" d="M 355.261719 133.222656 L 276.316406 133.222656 C 265.429688 133.222656 256.578125 142.074219 256.578125 152.960938 L 256.578125 177.632812 L 236.84375 177.632812 L 236.84375 148.027344 C 236.84375 142.578125 232.421875 138.15625 226.972656 138.15625 C 221.523438 138.15625 217.105469 142.578125 217.105469 148.027344 L 217.105469 177.632812 L 197.367188 177.632812 L 197.367188 59.210938 C 197.367188 48.324219 188.515625 39.472656 177.632812 39.472656 L 69.078125 39.472656 C 66.199219 39.472656 63.460938 40.730469 61.585938 42.917969 L 2.375 111.996094 C 0.84375 113.785156 0 116.066406 0 118.421875 L 0 167.761719 C 0 173.214844 4.417969 177.632812 9.867188 177.632812 C 15.316406 177.632812 19.738281 173.214844 19.738281 167.761719 L 19.738281 128.289062 L 69.078125 128.289062 C 74.527344 128.289062 78.949219 123.871094 78.949219 118.421875 L 78.949219 59.210938 L 177.632812 59.210938 L 177.632812 315.789062 L 19.738281 315.789062 L 19.738281 207.238281 C 19.738281 201.785156 15.316406 197.367188 9.867188 197.367188 C 4.417969 197.367188 0 201.785156 0 207.238281 L 0 315.789062 C 0 326.675781 8.851562 335.527344 19.738281 335.527344 L 177.632812 335.527344 C 188.515625 335.527344 197.367188 326.675781 197.367188 315.789062 L 197.367188 197.367188 L 217.105469 197.367188 L 217.105469 325.65625 C 217.105469 331.109375 221.523438 335.527344 226.972656 335.527344 L 256.578125 335.527344 L 256.578125 355.261719 C 256.578125 366.148438 265.429688 375 276.316406 375 L 355.261719 375 C 366.148438 375 375 366.148438 375 355.261719 L 375 286.183594 C 375 275.300781 366.148438 266.449219 355.261719 266.449219 L 276.316406 266.449219 C 265.429688 266.449219 256.578125 275.300781 256.578125 286.183594 L 256.578125 315.789062 L 236.84375 315.789062 L 236.84375 197.367188 L 256.578125 197.367188 L 256.578125 222.039062 C 256.578125 232.925781 265.429688 241.777344 276.316406 241.777344 L 355.261719 241.777344 C 366.148438 241.777344 375 232.925781 375 222.039062 L 375 152.960938 C 375 142.074219 366.148438 133.222656 355.261719 133.222656 Z M 31.324219 108.550781 L 59.210938 76.019531 L 59.210938 108.550781 Z M 276.316406 286.183594 L 355.261719 286.183594 L 355.277344 355.261719 L 276.316406 355.261719 Z M 276.316406 222.039062 L 276.316406 152.960938 L 355.261719 152.960938 L 355.277344 222.039062 Z M 276.316406 222.039062 " fill-opacity="1" fill-rule="nonzero"/><path fill="#ffbd59" d="M 323.613281 170.652344 L 310.855469 183.414062 L 307.964844 180.523438 C 304.109375 176.667969 297.863281 176.667969 294.007812 180.523438 C 290.15625 184.378906 290.15625 190.621094 294.007812 194.476562 L 303.878906 204.34375 C 305.804688 206.273438 308.332031 207.238281 310.855469 207.238281 C 313.378906 207.238281 315.90625 206.273438 317.832031 204.34375 L 337.570312 184.609375 C 341.425781 180.753906 341.425781 174.507812 337.570312 170.652344 C 333.714844 166.800781 327.46875 166.800781 323.613281 170.652344 Z M 323.613281 170.652344 " fill-opacity="1" fill-rule="nonzero"/><path fill="#ffbd59" d="M 303.878906 337.570312 C 305.804688 339.496094 308.332031 340.460938 310.855469 340.460938 C 313.378906 340.460938 315.90625 339.496094 317.832031 337.570312 L 337.570312 317.832031 C 341.425781 313.976562 341.425781 307.734375 337.570312 303.878906 C 333.714844 300.023438 327.46875 300.023438 323.613281 303.878906 L 310.855469 316.636719 L 307.964844 313.746094 C 304.109375 309.890625 297.863281 309.890625 294.007812 313.746094 C 290.15625 317.601562 290.15625 323.847656 294.007812 327.699219 Z M 303.878906 337.570312 " fill-opacity="1" fill-rule="nonzero"/><path fill="#ffbd59" d="M 39.472656 167.761719 C 39.472656 173.214844 43.890625 177.632812 49.34375 177.632812 L 148.027344 177.632812 C 153.476562 177.632812 157.894531 173.214844 157.894531 167.761719 C 157.894531 162.3125 153.476562 157.894531 148.027344 157.894531 L 49.34375 157.894531 C 43.890625 157.894531 39.472656 162.3125 39.472656 167.761719 Z M 39.472656 167.761719 " fill-opacity="1" fill-rule="nonzero"/><path fill="#ffbd59" d="M 49.34375 217.105469 L 148.027344 217.105469 C 153.476562 217.105469 157.894531 212.6875 157.894531 207.238281 C 157.894531 201.785156 153.476562 197.367188 148.027344 197.367188 L 49.34375 197.367188 C 43.890625 197.367188 39.472656 201.785156 39.472656 207.238281 C 39.472656 212.6875 43.890625 217.105469 49.34375 217.105469 Z M 49.34375 217.105469 " fill-opacity="1" fill-rule="nonzero"/><path fill="#ffbd59" d="M 49.34375 256.578125 L 148.027344 256.578125 C 153.476562 256.578125 157.894531 252.160156 157.894531 246.710938 C 157.894531 241.261719 153.476562 236.84375 148.027344 236.84375 L 49.34375 236.84375 C 43.890625 236.84375 39.472656 241.261719 39.472656 246.710938 C 39.472656 252.160156 43.890625 256.578125 49.34375 256.578125 Z M 49.34375 256.578125 " fill-opacity="1" fill-rule="nonzero"/><path fill="#ffbd59" d="M 49.34375 296.050781 L 148.027344 296.050781 C 153.476562 296.050781 157.894531 291.632812 157.894531 286.183594 C 157.894531 280.734375 153.476562 276.316406 148.027344 276.316406 L 49.34375 276.316406 C 43.890625 276.316406 39.472656 280.734375 39.472656 286.183594 C 39.472656 291.632812 43.890625 296.050781 49.34375 296.050781 Z M 49.34375 296.050781 " fill-opacity="1" fill-rule="nonzero"/><path fill="#ffbd59" d="M 108.550781 98.683594 L 148.027344 98.683594 C 153.476562 98.683594 157.894531 94.265625 157.894531 88.816406 C 157.894531 83.367188 153.476562 78.949219 148.027344 78.949219 L 108.550781 78.949219 C 103.101562 78.949219 98.683594 83.367188 98.683594 88.816406 C 98.683594 94.265625 103.101562 98.683594 108.550781 98.683594 Z M 108.550781 98.683594 " fill-opacity="1" fill-rule="nonzero"/><path fill="#ffbd59" d="M 108.550781 138.15625 L 148.027344 138.15625 C 153.476562 138.15625 157.894531 133.738281 157.894531 128.289062 C 157.894531 122.839844 153.476562 118.421875 148.027344 118.421875 L 108.550781 118.421875 C 103.101562 118.421875 98.683594 122.839844 98.683594 128.289062 C 98.683594 133.738281 103.101562 138.15625 108.550781 138.15625 Z M 108.550781 138.15625 " fill-opacity="1" fill-rule="nonzero"/></svg>