<svg xmlns="http://www.w3.org/2000/svg" xmlns:xlink="http://www.w3.org/1999/xlink" width="500" zoomAndPan="magnify" viewBox="0 0 375 374.999991" height="500" preserveAspectRatio="xMidYMid meet" version="1.0"><path fill="#ffbd59" d="M 4.601562 354.480469 L 35.546875 354.480469 C 38.078125 354.480469 40.128906 352.425781 40.128906 349.898438 L 40.128906 310.78125 C 40.128906 308.25 38.078125 306.199219 35.546875 306.199219 L 4.601562 306.199219 C 2.070312 306.199219 0.015625 308.25 0.015625 310.78125 L 0.015625 349.898438 C 0.015625 352.425781 2.066406 354.480469 4.601562 354.480469 Z M 9.183594 315.363281 L 30.964844 315.363281 L 30.964844 345.3125 L 9.183594 345.3125 Z M 9.183594 315.363281 " fill-opacity="1" fill-rule="nonzero"/><path fill="#ffbd59" d="M 88.714844 354.480469 C 91.242188 354.480469 93.296875 352.425781 93.296875 349.898438 L 93.296875 275.722656 C 93.296875 273.191406 91.242188 271.140625 88.714844 271.140625 L 57.765625 271.140625 C 55.234375 271.140625 53.183594 273.191406 53.183594 275.722656 L 53.183594 349.898438 C 53.183594 352.425781 55.234375 354.480469 57.765625 354.480469 Z M 62.347656 280.304688 L 84.128906 280.304688 L 84.128906 345.3125 L 62.347656 345.3125 Z M 62.347656 280.304688 " fill-opacity="1" fill-rule="nonzero"/><path fill="#ffbd59" d="M 141.878906 354.480469 C 144.410156 354.480469 146.460938 352.425781 146.460938 349.898438 L 146.460938 298.222656 C 146.460938 295.691406 144.410156 293.640625 141.878906 293.640625 L 110.933594 293.640625 C 108.402344 293.640625 106.347656 295.691406 106.347656 298.222656 L 106.347656 349.898438 C 106.347656 352.425781 108.402344 354.480469 110.933594 354.480469 Z M 115.515625 302.804688 L 137.296875 302.804688 L 137.296875 345.3125 L 115.515625 345.3125 Z M 115.515625 302.804688 " fill-opacity="1" fill-rule="nonzero"/><path fill="#ffbd59" d="M 248.210938 362.730469 L 4.601562 362.730469 C 2.070312 362.730469 0.015625 364.785156 0.015625 367.3125 C 0.015625 369.84375 2.070312 371.898438 4.601562 371.898438 L 248.214844 371.898438 C 250.742188 371.898438 252.796875 369.84375 252.796875 367.3125 C 252.796875 364.785156 250.742188 362.730469 248.210938 362.730469 Z M 248.210938 362.730469 " fill-opacity="1" fill-rule="nonzero"/><path fill="#ffbd59" d="M 368.402344 247.679688 L 319.675781 198.953125 C 318.816406 198.09375 317.648438 197.609375 316.433594 197.609375 C 315.21875 197.609375 314.054688 198.09375 313.195312 198.953125 L 311.640625 200.503906 L 301.375 190.234375 C 304.6875 185.375 307.472656 180.171875 309.703125 174.671875 C 313.769531 164.640625 315.832031 154.042969 315.832031 143.171875 C 315.832031 132.300781 313.769531 121.699219 309.703125 111.667969 C 308.023438 107.53125 306.03125 103.5625 303.738281 99.78125 C 304.890625 99.734375 305.984375 99.175781 306.695312 98.207031 L 312.382812 90.472656 L 318.183594 89.890625 L 325.296875 96.335938 C 326.511719 97.4375 328.285156 97.652344 329.726562 96.878906 L 340.089844 91.3125 C 341.53125 90.535156 342.332031 88.941406 342.085938 87.320312 L 340.636719 77.828125 L 344.328125 73.316406 L 353.914062 72.84375 C 355.550781 72.761719 356.957031 71.664062 357.429688 70.097656 L 360.820312 58.832031 C 361.292969 57.265625 360.726562 55.570312 359.410156 54.601562 L 351.675781 48.910156 L 351.09375 43.109375 L 357.539062 35.996094 C 358.640625 34.785156 358.855469 33.011719 358.082031 31.570312 L 352.515625 21.203125 C 351.738281 19.761719 350.140625 18.964844 348.523438 19.210938 L 339.03125 20.65625 L 334.519531 16.96875 L 334.046875 7.378906 C 333.964844 5.746094 332.867188 4.335938 331.300781 3.867188 L 320.035156 0.472656 C 318.464844 0.00390625 316.773438 0.566406 315.800781 1.886719 L 310.113281 9.621094 L 304.3125 10.203125 L 297.199219 3.757812 C 295.988281 2.65625 294.214844 2.441406 292.773438 3.214844 L 282.40625 8.78125 C 280.964844 9.558594 280.167969 11.152344 280.414062 12.773438 L 281.859375 22.265625 L 278.171875 26.777344 L 268.582031 27.25 C 266.949219 27.332031 265.539062 28.429688 265.070312 29.996094 L 261.675781 41.261719 C 261.203125 42.832031 261.769531 44.523438 263.089844 45.492188 L 270.824219 51.183594 L 271.40625 56.984375 L 264.960938 64.097656 C 264.519531 64.585938 264.222656 65.160156 264.070312 65.773438 C 263.917969 65.707031 263.769531 65.644531 263.617188 65.582031 C 253.582031 61.515625 242.984375 59.453125 232.113281 59.453125 C 221.242188 59.453125 210.644531 61.515625 200.613281 65.582031 C 190.226562 69.796875 180.90625 75.984375 172.917969 83.972656 C 164.925781 91.964844 158.738281 101.28125 154.527344 111.671875 C 150.457031 121.703125 148.398438 132.300781 148.398438 143.171875 C 148.398438 154.042969 150.460938 164.640625 154.527344 174.671875 C 158.738281 185.058594 164.925781 194.378906 172.917969 202.371094 C 174.636719 204.089844 176.421875 205.730469 178.261719 207.28125 C 171.648438 207.941406 166.460938 213.539062 166.460938 220.328125 C 166.460938 222.367188 166.929688 224.296875 167.761719 226.019531 L 131.609375 263.683594 C 130.015625 262.992188 128.253906 262.609375 126.410156 262.609375 C 122.769531 262.609375 119.472656 264.097656 117.09375 266.5 L 86.328125 252.644531 C 86.34375 252.355469 86.355469 252.070312 86.355469 251.777344 C 86.355469 244.546875 80.472656 238.664062 73.242188 238.664062 C 66.011719 238.664062 60.128906 244.546875 60.128906 251.777344 C 60.128906 252.777344 60.242188 253.753906 60.457031 254.691406 L 27.824219 276.117188 C 25.648438 274.523438 22.96875 273.578125 20.074219 273.578125 C 12.84375 273.578125 6.960938 279.460938 6.960938 286.691406 C 6.960938 293.921875 12.84375 299.804688 20.074219 299.804688 C 27.304688 299.804688 33.1875 293.921875 33.1875 286.691406 C 33.1875 285.691406 33.074219 284.714844 32.859375 283.777344 L 65.492188 262.347656 C 67.664062 263.945312 70.34375 264.886719 73.238281 264.886719 C 76.878906 264.886719 80.175781 263.398438 82.554688 260.996094 L 113.320312 274.855469 C 113.304688 275.140625 113.292969 275.429688 113.292969 275.71875 C 113.292969 282.953125 119.175781 288.832031 126.40625 288.832031 C 133.636719 288.832031 139.519531 282.953125 139.519531 275.71875 C 139.519531 273.683594 139.050781 271.75 138.21875 270.03125 L 159.515625 247.839844 L 159.515625 349.894531 C 159.515625 352.425781 161.566406 354.476562 164.097656 354.476562 L 195.046875 354.476562 C 197.578125 354.476562 199.628906 352.425781 199.628906 349.894531 L 199.628906 247.503906 C 199.628906 244.976562 197.578125 242.921875 195.046875 242.921875 L 164.234375 242.921875 L 174.371094 232.363281 C 175.96875 233.054688 177.726562 233.4375 179.574219 233.4375 C 186.804688 233.4375 192.6875 227.554688 192.6875 220.324219 C 192.6875 219.101562 192.515625 217.914062 192.203125 216.789062 C 194.917969 218.261719 197.722656 219.585938 200.609375 220.757812 C 204.554688 222.355469 208.582031 223.644531 212.683594 224.621094 L 212.683594 349.894531 C 212.683594 352.425781 214.734375 354.476562 217.265625 354.476562 L 248.214844 354.476562 C 250.742188 354.476562 252.796875 352.425781 252.796875 349.894531 L 252.796875 224.3125 C 256.464844 223.378906 260.074219 222.195312 263.613281 220.757812 C 269.113281 218.527344 274.316406 215.742188 279.175781 212.429688 L 289.445312 222.699219 L 287.894531 224.25 C 286.105469 226.039062 286.105469 228.941406 287.894531 230.730469 L 336.621094 279.457031 C 341.003906 283.839844 346.757812 286.03125 352.511719 286.03125 C 358.265625 286.03125 364.019531 283.839844 368.402344 279.457031 C 372.644531 275.214844 374.984375 269.570312 374.984375 263.570312 C 374.984375 257.566406 372.644531 251.925781 368.402344 247.679688 Z M 20.074219 290.636719 C 17.898438 290.636719 16.125 288.867188 16.125 286.691406 C 16.125 284.511719 17.898438 282.742188 20.074219 282.742188 C 22.25 282.742188 24.023438 284.511719 24.023438 286.691406 C 24.023438 288.867188 22.25 290.636719 20.074219 290.636719 Z M 73.238281 255.722656 C 71.0625 255.722656 69.289062 253.949219 69.289062 251.773438 C 69.289062 249.597656 71.0625 247.824219 73.238281 247.824219 C 75.417969 247.824219 77.1875 249.597656 77.1875 251.773438 C 77.1875 253.949219 75.417969 255.722656 73.238281 255.722656 Z M 168.679688 252.089844 L 190.464844 252.089844 L 190.464844 345.3125 L 168.679688 345.3125 Z M 126.40625 279.667969 C 124.230469 279.667969 122.457031 277.898438 122.457031 275.71875 C 122.457031 273.542969 124.230469 271.773438 126.40625 271.773438 C 128.582031 271.773438 130.355469 273.542969 130.355469 275.71875 C 130.355469 277.898438 128.582031 279.667969 126.40625 279.667969 Z M 179.574219 224.273438 C 177.394531 224.273438 175.625 222.503906 175.625 220.328125 C 175.625 218.148438 177.394531 216.378906 179.574219 216.378906 C 181.75 216.378906 183.519531 218.148438 183.519531 220.328125 C 183.519531 222.503906 181.75 224.273438 179.574219 224.273438 Z M 272.523438 67.265625 L 278.289062 60.902344 C 279.027344 60.089844 279.382812 59.007812 279.273438 57.917969 L 278.34375 48.695312 C 278.234375 47.605469 277.671875 46.617188 276.789062 45.964844 L 269.867188 40.878906 L 271.6875 34.839844 L 280.265625 34.417969 C 281.359375 34.363281 282.378906 33.847656 283.070312 33.003906 L 288.9375 25.824219 C 289.628906 24.976562 289.929688 23.878906 289.765625 22.796875 L 288.472656 14.300781 L 294.023438 11.320312 L 300.390625 17.085938 C 301.203125 17.824219 302.285156 18.179688 303.375 18.070312 L 312.597656 17.140625 C 313.683594 17.03125 314.675781 16.46875 315.324219 15.585938 L 320.414062 8.664062 L 326.449219 10.484375 L 326.875 19.0625 C 326.925781 20.15625 327.441406 21.175781 328.289062 21.867188 L 335.464844 27.734375 C 336.3125 28.425781 337.414062 28.726562 338.496094 28.5625 L 346.988281 27.265625 L 349.972656 32.820312 L 344.203125 39.1875 C 343.46875 39.996094 343.113281 41.082031 343.222656 42.171875 L 344.148438 51.390625 C 344.257812 52.480469 344.824219 53.472656 345.707031 54.121094 L 352.625 59.210938 L 350.808594 65.25 L 342.226562 65.671875 C 341.136719 65.722656 340.117188 66.238281 339.421875 67.085938 L 333.558594 74.261719 C 332.863281 75.109375 332.5625 76.210938 332.730469 77.292969 L 334.023438 85.785156 L 328.46875 88.769531 L 322.101562 83 C 321.292969 82.265625 320.207031 81.90625 319.117188 82.019531 L 309.894531 82.945312 C 308.808594 83.054688 307.816406 83.621094 307.167969 84.503906 L 302.078125 91.421875 L 296.601562 89.773438 C 296.40625 89.539062 296.210938 89.308594 296.015625 89.074219 L 295.617188 81.023438 C 295.566406 79.929688 295.050781 78.910156 294.203125 78.21875 L 287.027344 72.355469 C 286.179688 71.660156 285.078125 71.359375 283.996094 71.527344 L 277.148438 72.570312 C 276.273438 72.011719 275.390625 71.472656 274.5 70.945312 Z M 243.628906 345.3125 L 221.847656 345.3125 L 221.847656 228.066406 L 243.628906 228.066406 Z M 260.167969 212.265625 C 251.238281 215.886719 241.796875 217.722656 232.109375 217.722656 C 222.425781 217.722656 212.988281 215.886719 204.054688 212.265625 C 194.808594 208.515625 186.511719 203.007812 179.394531 195.886719 C 172.273438 188.769531 166.765625 180.472656 163.015625 171.226562 C 159.394531 162.296875 157.558594 152.855469 157.558594 143.171875 C 157.558594 133.484375 159.394531 124.046875 163.015625 115.113281 C 166.765625 105.867188 172.273438 97.570312 179.394531 90.453125 C 186.511719 83.335938 194.808594 77.824219 204.054688 74.074219 C 212.984375 70.453125 222.425781 68.617188 232.109375 68.617188 C 241.796875 68.617188 251.234375 70.453125 260.167969 74.074219 C 263.582031 75.460938 266.871094 77.085938 270.015625 78.945312 C 270.667969 80.113281 271.867188 80.84375 273.171875 80.917969 C 277.335938 83.671875 281.234375 86.855469 284.828125 90.453125 C 291.945312 97.570312 297.457031 105.867188 301.207031 115.113281 C 304.828125 124.046875 306.664062 133.484375 306.664062 143.171875 C 306.664062 152.855469 304.828125 162.296875 301.207031 171.226562 C 297.457031 180.472656 291.945312 188.769531 284.828125 195.886719 C 277.710938 203.007812 269.414062 208.515625 260.167969 212.265625 Z M 295.925781 216.21875 L 286.695312 206.984375 L 295.925781 197.753906 L 305.160156 206.984375 Z M 361.921875 272.980469 C 356.730469 278.167969 348.289062 278.167969 343.101562 272.980469 L 297.613281 227.492188 L 307.023438 218.082031 L 314.882812 210.226562 C 314.882812 210.222656 314.882812 210.222656 314.882812 210.222656 L 316.433594 208.671875 L 361.921875 254.160156 C 364.433594 256.675781 365.816406 260.015625 365.816406 263.570312 C 365.816406 267.125 364.433594 270.464844 361.921875 272.980469 Z M 361.921875 272.980469 " fill-opacity="1" fill-rule="nonzero"/><path fill="#ffbd59" d="M 299.820312 143.167969 C 299.820312 134.375 298.152344 125.804688 294.863281 117.691406 C 291.457031 109.289062 286.453125 101.753906 279.988281 95.292969 C 273.527344 88.828125 265.988281 83.824219 257.589844 80.417969 C 249.476562 77.128906 240.902344 75.457031 232.109375 75.457031 C 223.320312 75.457031 214.746094 77.128906 206.632812 80.417969 C 198.230469 83.824219 190.695312 88.828125 184.234375 95.292969 C 177.769531 101.753906 172.765625 109.289062 169.359375 117.691406 C 166.070312 125.804688 164.398438 134.378906 164.398438 143.167969 C 164.398438 151.960938 166.070312 160.535156 169.359375 168.644531 C 172.765625 177.046875 177.769531 184.585938 184.234375 191.046875 C 190.695312 197.507812 198.230469 202.515625 206.632812 205.921875 C 214.746094 209.210938 223.320312 210.878906 232.109375 210.878906 C 240.902344 210.878906 249.476562 209.210938 257.589844 205.921875 C 265.988281 202.515625 273.527344 197.507812 279.988281 191.046875 C 286.453125 184.585938 291.457031 177.046875 294.863281 168.644531 C 298.152344 160.535156 299.820312 151.960938 299.820312 143.167969 Z M 286.371094 165.203125 C 283.425781 172.460938 279.097656 178.976562 273.507812 184.566406 C 267.917969 190.15625 261.402344 194.484375 254.144531 197.429688 C 247.128906 200.273438 239.71875 201.714844 232.109375 201.714844 C 224.503906 201.714844 217.09375 200.273438 210.078125 197.429688 C 202.816406 194.484375 196.300781 190.160156 190.710938 184.566406 C 185.121094 178.976562 180.796875 172.460938 177.851562 165.203125 C 175.007812 158.1875 173.566406 150.773438 173.566406 143.167969 C 173.566406 135.5625 175.007812 128.148438 177.851562 121.136719 C 180.796875 113.875 185.121094 107.359375 190.710938 101.769531 C 196.300781 96.179688 202.816406 91.855469 210.078125 88.910156 C 217.089844 86.066406 224.503906 84.625 232.109375 84.625 C 239.71875 84.625 247.128906 86.066406 254.144531 88.910156 C 261.402344 91.855469 267.917969 96.179688 273.507812 101.769531 C 279.097656 107.359375 283.425781 113.875 286.371094 121.136719 C 289.214844 128.148438 290.65625 135.5625 290.65625 143.167969 C 290.65625 150.773438 289.214844 158.1875 286.371094 165.203125 Z M 286.371094 165.203125 " fill-opacity="1" fill-rule="nonzero"/><path fill="#ffbd59" d="M 270.429688 165.4375 L 270.429688 125.476562 C 270.429688 124.457031 269.605469 123.628906 268.582031 123.628906 L 253.890625 123.628906 C 252.871094 123.628906 252.042969 124.457031 252.042969 125.476562 L 252.042969 164.558594 L 241.933594 164.558594 L 241.933594 136.667969 C 241.933594 135.785156 241.21875 135.070312 240.335938 135.070312 L 225.140625 135.070312 C 224.257812 135.070312 223.542969 135.785156 223.542969 136.667969 L 223.542969 164.558594 L 213.433594 164.558594 L 213.433594 144.5625 C 213.433594 143.792969 212.808594 143.167969 212.039062 143.167969 L 196.441406 143.167969 C 195.671875 143.167969 195.046875 143.792969 195.046875 144.5625 L 195.046875 164.558594 C 192.515625 164.558594 190.464844 166.613281 190.464844 169.144531 C 190.464844 171.671875 192.515625 173.726562 195.046875 173.726562 L 267.738281 173.726562 C 270.269531 173.726562 272.320312 171.671875 272.320312 169.144531 C 272.320312 167.621094 271.578125 166.269531 270.429688 165.4375 Z M 270.429688 165.4375 " fill-opacity="1" fill-rule="nonzero"/><path fill="#ffbd59" d="M 198.421875 138.9375 C 199.414062 138.9375 200.402344 138.5625 201.15625 137.804688 L 219.140625 119.824219 L 227.527344 128.214844 C 228.253906 128.9375 229.238281 129.347656 230.261719 129.347656 C 231.289062 129.347656 232.273438 128.9375 233 128.214844 L 246.953125 114.257812 L 246.953125 116.941406 C 246.953125 119.078125 248.6875 120.8125 250.824219 120.8125 C 252.960938 120.8125 254.691406 119.078125 254.691406 116.941406 L 254.691406 104.511719 C 254.691406 102.375 252.960938 100.640625 250.824219 100.640625 L 238.390625 100.640625 C 236.253906 100.640625 234.523438 102.375 234.523438 104.511719 C 234.523438 106.648438 236.253906 108.378906 238.390625 108.378906 L 241.894531 108.378906 L 230.261719 120.007812 L 221.875 111.617188 C 221.148438 110.894531 220.164062 110.484375 219.140625 110.484375 C 218.113281 110.484375 217.128906 110.890625 216.402344 111.617188 L 195.6875 132.335938 C 194.175781 133.847656 194.175781 136.296875 195.6875 137.804688 C 196.441406 138.5625 197.433594 138.9375 198.421875 138.9375 Z M 198.421875 138.9375 " fill-opacity="1" fill-rule="nonzero"/><path fill="#ffbd59" d="M 311.230469 72.34375 C 311.976562 72.34375 312.722656 72.304688 313.480469 72.230469 C 325.710938 71 334.664062 60.046875 333.433594 47.816406 C 332.839844 41.890625 329.96875 36.550781 325.359375 32.78125 C 320.75 29.011719 314.945312 27.265625 309.019531 27.859375 C 303.09375 28.457031 297.753906 31.324219 293.988281 35.933594 C 290.21875 40.546875 288.46875 46.347656 289.066406 52.273438 C 290.21875 63.753906 299.929688 72.34375 311.230469 72.34375 Z M 299.976562 40.832031 C 302.4375 37.820312 305.921875 35.949219 309.792969 35.558594 C 310.289062 35.511719 310.78125 35.484375 311.273438 35.484375 C 314.621094 35.484375 317.835938 36.628906 320.460938 38.773438 C 323.472656 41.234375 325.34375 44.71875 325.734375 48.589844 C 326.539062 56.578125 320.691406 63.726562 312.703125 64.53125 C 304.714844 65.332031 297.566406 59.488281 296.761719 51.5 C 296.375 47.632812 297.515625 43.84375 299.976562 40.832031 Z M 299.976562 40.832031 " fill-opacity="1" fill-rule="nonzero"/></svg>