<svg xmlns="http://www.w3.org/2000/svg" xmlns:xlink="http://www.w3.org/1999/xlink" width="500" zoomAndPan="magnify" viewBox="0 0 375 374.999991" height="500" preserveAspectRatio="xMidYMid meet" version="1.0"><defs><clipPath id="6138a7bb3e"><path d="M 0 173 L 374.878906 173 L 374.878906 372 L 0 372 Z M 0 173 " clip-rule="nonzero"/></clipPath></defs><g clip-path="url(#6138a7bb3e)"><path fill="#ffbd59" d="M 61.21875 173.625 C 78.90625 173.625 96.585938 173.625 114.273438 173.625 C 122.117188 173.625 125.078125 176.527344 125.414062 184.445312 C 126.761719 216.605469 151.820312 241.800781 183.914062 243.25 C 214.675781 244.644531 242.527344 220.867188 245.960938 190.285156 C 246.210938 188.054688 246.53125 185.828125 246.625 183.585938 C 246.902344 176.929688 250.140625 173.683594 256.941406 173.632812 C 265.78125 173.566406 274.628906 173.617188 283.46875 173.617188 C 310.136719 173.617188 336.796875 173.617188 363.46875 173.617188 C 371.886719 173.617188 374.9375 176.636719 374.964844 184.976562 C 374.996094 194.105469 375.015625 203.222656 374.957031 212.347656 C 374.90625 219.296875 372.148438 222.140625 365.246094 223.085938 C 354.703125 224.527344 344.195312 226.222656 333.652344 227.605469 C 330.859375 227.96875 329.746094 229.242188 328.9375 231.824219 C 327.082031 237.695312 324.796875 243.4375 321.84375 248.851562 C 320.433594 251.425781 320.628906 253.261719 322.433594 255.601562 C 328.878906 263.917969 335.101562 272.394531 341.371094 280.84375 C 345.78125 286.78125 345.535156 290.492188 340.425781 295.613281 C 326.644531 309.421875 312.851562 323.210938 299.046875 337 C 293.859375 342.179688 290.164062 342.457031 284.285156 338.089844 C 275.734375 331.730469 267.15625 325.402344 258.695312 318.917969 C 256.628906 317.332031 254.976562 317.144531 252.65625 318.359375 C 246.828125 321.421875 240.746094 323.953125 234.4375 325.859375 C 232.269531 326.515625 231.445312 327.628906 231.140625 329.90625 C 229.6875 340.730469 227.960938 351.515625 226.449219 362.328125 C 225.574219 368.613281 222.546875 371.683594 216.226562 371.707031 C 196.160156 371.792969 176.089844 371.792969 156.023438 371.707031 C 149.460938 371.683594 146.515625 368.664062 145.605469 362.066406 C 144.105469 351.253906 142.375 340.46875 140.890625 329.65625 C 140.605469 327.5625 139.8125 326.515625 137.8125 325.902344 C 131.375 323.925781 125.160156 321.355469 119.214844 318.21875 C 117.011719 317.054688 115.484375 317.304688 113.5625 318.773438 C 104.867188 325.402344 96.085938 331.941406 87.28125 338.425781 C 81.96875 342.339844 78.078125 342.042969 73.492188 337.464844 C 59.378906 323.386719 45.285156 309.300781 31.21875 295.183594 C 26.621094 290.578125 26.367188 286.699219 30.289062 281.410156 C 36.71875 272.730469 43.109375 264.027344 49.707031 255.480469 C 51.417969 253.253906 51.605469 251.535156 50.28125 249.097656 C 47.269531 243.554688 44.921875 237.683594 43.035156 231.671875 C 42.207031 229.023438 40.941406 227.953125 38.21875 227.597656 C 27.667969 226.222656 17.15625 224.527344 6.621094 223.085938 C 0.0117188 222.175781 -2.941406 219.222656 -3.007812 212.667969 C -3.101562 203.128906 -3.109375 193.582031 -3.007812 184.042969 C -2.933594 176.898438 0.5 173.640625 7.777344 173.625 C 25.601562 173.601562 43.421875 173.617188 61.253906 173.625 Z M 61.617188 191.757812 L 25.820312 191.757812 C 14.695312 191.757812 14.796875 191.757812 14.878906 203.003906 C 14.898438 205.5 15.621094 206.34375 18.050781 206.671875 C 28.316406 208.078125 38.539062 209.835938 48.8125 211.140625 C 53.863281 211.78125 56.578125 214.472656 57.855469 219.128906 C 60.5625 229.039062 64.433594 238.484375 69.578125 247.367188 C 72.257812 252 71.777344 255.988281 68.566406 260.144531 C 62.382812 268.132812 56.496094 276.347656 50.328125 284.34375 C 48.726562 286.429688 48.777344 287.640625 50.699219 289.515625 C 60.230469 298.835938 69.703125 308.230469 78.972656 317.820312 C 81.242188 320.164062 82.601562 319.742188 84.820312 318.03125 C 92.824219 311.867188 100.980469 305.917969 109.035156 299.820312 C 112.457031 297.230469 116.027344 296.210938 119.949219 298.445312 C 129.742188 304.015625 140.082031 308.207031 150.886719 311.34375 C 154.800781 312.472656 156.855469 315.15625 157.429688 319.203125 C 158.914062 329.605469 160.585938 339.96875 161.992188 350.378906 C 162.339844 352.910156 163.125 353.84375 165.839844 353.820312 C 179.308594 353.667969 192.789062 353.691406 206.265625 353.800781 C 208.652344 353.820312 209.648438 353.28125 209.984375 350.714844 C 211.351562 340.441406 213.140625 330.226562 214.457031 319.953125 C 215.097656 314.929688 217.71875 312.136719 222.394531 310.863281 C 232.304688 308.164062 241.757812 304.308594 250.640625 299.171875 C 255.269531 296.488281 259.234375 296.871094 263.410156 300.101562 C 271.398438 306.273438 279.597656 312.1875 287.617188 318.320312 C 289.597656 319.835938 290.839844 320.082031 292.804688 318.066406 C 302.207031 308.417969 311.738281 298.886719 321.386719 289.480469 C 323.386719 287.53125 323.203125 286.292969 321.667969 284.292969 C 315.441406 276.164062 309.394531 267.90625 303.203125 259.742188 C 300.621094 256.332031 299.507812 252.765625 301.734375 248.828125 C 307.277344 239.027344 311.511719 228.695312 314.632812 217.890625 C 315.753906 214 318.367188 211.824219 322.433594 211.269531 C 330.347656 210.1875 338.230469 208.972656 346.136719 207.871094 C 357.757812 206.242188 357.691406 206.265625 357.132812 194.507812 C 357.023438 192.230469 356.230469 191.707031 354.148438 191.71875 C 325.089844 191.769531 296.035156 191.769531 266.976562 191.71875 C 264.785156 191.71875 263.824219 192.300781 263.425781 194.675781 C 256.308594 237.878906 218.167969 265.90625 174.453125 260.171875 C 141.488281 255.84375 113.378906 228.3125 108.671875 195.453125 C 108.207031 192.199219 106.96875 191.675781 104.132812 191.699219 C 89.957031 191.808594 75.777344 191.75 61.597656 191.75 Z M 61.617188 191.757812 " fill-opacity="1" fill-rule="nonzero"/></g><path fill="#ffbd59" d="M 176.929688 104.453125 C 176.929688 89.585938 176.890625 74.714844 176.972656 59.851562 C 176.992188 57.464844 176.332031 56.21875 174.03125 55.113281 C 161.523438 49.15625 154.933594 35.898438 157.878906 23.203125 C 161.082031 9.429688 172.597656 0.144531 186.25 0.320312 C 199.890625 0.5 211.007812 9.652344 214.144531 23.28125 C 217.003906 35.679688 210.601562 49.015625 198.640625 54.734375 C 195.714844 56.132812 195.007812 57.753906 195.015625 60.773438 C 195.125 89.945312 195.089844 119.121094 195.074219 148.296875 C 195.074219 155.09375 191.707031 159.175781 186.167969 159.269531 C 180.683594 159.363281 176.980469 155.371094 176.949219 149.054688 C 176.890625 134.1875 176.929688 119.316406 176.921875 104.453125 Z M 186.160156 18.328125 C 180.070312 18.261719 175.066406 23.113281 175.074219 29.066406 C 175.085938 34.835938 179.925781 39.660156 185.789062 39.738281 C 191.867188 39.820312 196.894531 34.953125 196.871094 29.007812 C 196.84375 23.195312 192.027344 18.398438 186.160156 18.328125 Z M 186.160156 18.328125 " fill-opacity="1" fill-rule="nonzero"/><path fill="#ffbd59" d="M 81.34375 125.160156 C 81.34375 117.164062 81.191406 109.152344 81.429688 101.164062 C 81.511719 98.171875 80.390625 96.617188 77.925781 95.242188 C 70.453125 91.09375 63.050781 86.824219 55.71875 82.441406 C 53.308594 80.996094 51.671875 80.847656 49.097656 82.617188 C 38.902344 89.652344 28.054688 90.066406 17.527344 83.5625 C 6.941406 77.015625 2.464844 66.921875 4.320312 54.773438 C 6.117188 42.96875 13.292969 35.03125 24.867188 31.597656 C 43.007812 26.214844 61.515625 40.097656 61.195312 59.101562 C 61.117188 63.707031 62.484375 66.027344 66.414062 68.117188 C 75.429688 72.925781 84.136719 78.332031 93.058594 83.324219 C 97.285156 85.6875 99.300781 88.902344 99.265625 93.84375 C 99.132812 112.367188 99.25 130.894531 99.191406 149.425781 C 99.164062 156.722656 93.023438 161.292969 86.816406 158.671875 C 83.074219 157.09375 81.34375 154.074219 81.359375 150 C 81.386719 141.71875 81.359375 133.433594 81.359375 125.160156 Z M 32.8125 48.535156 C 26.722656 48.464844 21.730469 53.308594 21.753906 59.253906 C 21.78125 65.066406 26.585938 69.839844 32.464844 69.898438 C 38.589844 69.964844 43.546875 65.148438 43.539062 59.167969 C 43.523438 53.375 38.707031 48.59375 32.8125 48.523438 Z M 32.8125 48.535156 " fill-opacity="1" fill-rule="nonzero"/><path fill="#ffbd59" d="M 272.8125 120.75 C 272.8125 111.488281 272.957031 102.21875 272.753906 92.964844 C 272.644531 87.878906 274.679688 84.574219 279.105469 82.136719 C 288.0625 77.195312 296.734375 71.738281 305.75 66.9375 C 309.570312 64.90625 310.945312 62.695312 310.820312 58.242188 C 310.421875 43.667969 320.816406 32.101562 335.792969 29.675781 C 348.632812 27.589844 362.195312 36.355469 366.410156 49.445312 C 370.164062 61.085938 366.226562 73.492188 356.410156 80.949219 C 346.769531 88.269531 333.367188 88.792969 323.414062 81.816406 C 320.6875 79.910156 318.851562 79.699219 316.015625 81.46875 C 309.007812 85.847656 301.847656 89.996094 294.550781 93.878906 C 291.480469 95.511719 290.628906 97.503906 290.660156 100.820312 C 290.820312 116.820312 290.761719 132.820312 290.722656 148.8125 C 290.703125 154.410156 288.460938 157.878906 284.371094 158.984375 C 278.261719 160.636719 272.890625 156.460938 272.832031 149.796875 C 272.738281 140.113281 272.804688 130.433594 272.804688 120.75 Z M 350.25 58.335938 C 350.453125 52.523438 345.332031 47.226562 339.457031 47.167969 C 333.769531 47.109375 328.691406 52.007812 328.492188 57.753906 C 328.289062 63.386719 333.121094 68.582031 338.875 68.917969 C 344.640625 69.257812 350.039062 64.230469 350.242188 58.324219 Z M 350.25 58.335938 " fill-opacity="1" fill-rule="nonzero"/><path fill="#ffbd59" d="M 143.886719 114.398438 C 143.886719 126.046875 143.902344 137.6875 143.886719 149.332031 C 143.875 155.441406 140.425781 159.617188 135.199219 159.605469 C 130.390625 159.605469 125.988281 155.886719 126.0625 149.300781 C 126.316406 127.976562 126.113281 106.65625 126.214844 85.324219 C 126.222656 82.726562 125.472656 80.878906 123.667969 79.03125 C 108.484375 63.460938 93.40625 47.800781 78.257812 32.195312 C 75.828125 29.699219 73.769531 27.035156 74.300781 23.355469 C 74.789062 19.949219 76.679688 17.324219 79.960938 16.070312 C 83.382812 14.761719 86.640625 15.34375 89.3125 17.898438 C 91.945312 20.421875 94.417969 23.113281 96.957031 25.726562 C 111.292969 40.546875 125.589844 55.40625 140.003906 70.160156 C 142.730469 72.953125 144.019531 75.929688 143.953125 79.882812 C 143.765625 91.390625 143.886719 102.894531 143.886719 114.398438 Z M 143.886719 114.398438 " fill-opacity="1" fill-rule="nonzero"/><path fill="#ffbd59" d="M 228.136719 114.332031 C 228.136719 102.546875 228.195312 90.765625 228.09375 78.980469 C 228.070312 75.820312 229.039062 73.304688 231.222656 71.0625 C 248.117188 53.636719 264.953125 36.160156 281.863281 18.742188 C 285.90625 14.585938 291.175781 14.339844 294.945312 17.898438 C 298.894531 21.636719 298.867188 26.855469 294.582031 31.308594 C 279.410156 47.082031 264.210938 62.828125 248.902344 78.46875 C 246.660156 80.761719 245.808594 83.0625 245.824219 86.234375 C 245.949219 107.414062 245.925781 128.601562 245.867188 149.789062 C 245.847656 156.984375 240.082031 161.386719 233.914062 158.964844 C 229.984375 157.421875 228.113281 154.394531 228.128906 150.109375 C 228.179688 138.183594 228.144531 126.257812 228.144531 114.339844 Z M 228.136719 114.332031 " fill-opacity="1" fill-rule="nonzero"/></svg>